<svg
  xmlns="http://www.w3.org/2000/svg"
  width="800"
  height="400"
  viewBox="0 0 800 400"
  role="img"
  aria-label="Green gradient blob background"
>
  <defs>
    <linearGradient id="heroGrad" x1="0" y1="0" x2="1" y2="1">
      <stop offset="0%" stop-color="#4CAF50" />
      <stop offset="60%" stop-color="#8BC34A" />
      <stop offset="100%" stop-color="#FDD835" />
    </linearGradient>
    <radialGradient id="heroGlow" cx="32%" cy="28%" r="70%">
      <stop offset="0%" stop-color="#FFFFFF" stop-opacity="0.55" />
      <stop offset="45%" stop-color="#FFFFFF" stop-opacity="0.18" />
      <stop offset="100%" stop-color="#FFFFFF" stop-opacity="0" />
    </radialGradient>
  </defs>

  <path
    d="M120,210 C80,150 120,80 200,70 C265,62 290,98 340,92 C420,82 400,40 500,40 C610,40 690,110 680,195 C670,275 740,280 705,335 C665,395 570,392 475,365 C395,342 355,390 270,368 C175,344 165,290 120,210 Z"
    fill="url(#heroGrad)"
  />

  <path
    d="M140,220 C110,185 130,125 185,115 C235,106 260,140 300,132 C365,118 355,85 430,85 C520,85 585,140 565,205 C540,285 635,290 600,330 C565,368 510,365 440,342 C380,322 345,360 290,348 C205,329 170,278 140,220 Z"
    fill="url(#heroGlow)"
    opacity="0.85"
  />

  <g opacity="0.22">
    <circle cx="150" cy="120" r="26" fill="#FFFFFF" />
    <circle cx="650" cy="140" r="18" fill="#FFFFFF" />
    <circle cx="610" cy="310" r="26" fill="#FFFFFF" />
  </g>
</svg>

