<svg
  xmlns="http://www.w3.org/2000/svg"
  width="200"
  height="180"
  viewBox="0 0 200 180"
  role="img"
  aria-label="Pink splash decoration"
>
  <defs>
    <linearGradient id="splashPinkGrad" x1="0" y1="0" x2="1" y2="1">
      <stop offset="0%" stop-color="#F06292" />
      <stop offset="100%" stop-color="#F8BBD9" />
    </linearGradient>
    <radialGradient id="splashPinkShine" cx="35%" cy="25%" r="60%">
      <stop offset="0%" stop-color="#FFFFFF" stop-opacity="0.45" />
      <stop offset="45%" stop-color="#FFFFFF" stop-opacity="0.18" />
      <stop offset="100%" stop-color="#FFFFFF" stop-opacity="0" />
    </radialGradient>
  </defs>

  <path
    d="M56,88 C28,44 60,12 96,22 C118,28 125,12 148,20 C176,30 191,62 168,90 C150,112 176,138 156,155 C129,176 91,167 69,152 C49,139 40,118 56,88 Z"
    fill="url(#splashPinkGrad)"
  />
  <path
    d="M74,46 C58,55 52,72 56,86 C60,101 78,104 96,94 C115,84 123,64 110,52 C98,40 86,38 74,46 Z"
    fill="url(#splashPinkShine)"
    opacity="0.9"
  />
</svg>

